<svg xmlns="http://www.w3.org/2000/svg" width="300" height="32.241" viewBox="0 0 300 32.241">
    <g id="prefix__Group_3" data-name="Group 3">
        <path id="prefix__Path_7" d="M57.92 26.162l-1.262-10.13-2.073 10.13h-2.874l-2.3-10.129-1.377 10.129h-5.056L45.907 6.02h5.227l1.9 8.89 2.01-8.895h5.06l2.87 20.146H57.92zM75.335 6.02v5.06h-5.114v2.6h3.618v5.06h-3.618v2.415h5.114v5.006H65.156V6.02h10.175zm2.758 0h11.152v5.47H86.2v14.667h-5.119V11.495h-2.988v-5.48zm13.045 20.142l5-20.142h5.921l5 20.142h-5l-.807-2.884h-4.306l-.746 2.884h-5.06zm9.2-6.894l-1.2-5.119-1.32 5.128h2.528zm19.08-13.248l4.024 20.142h-5.114l-2.185-15.018h-.406L113.5 26.162h-5.056l3.904-20.142h7.07zm16.379 0l4.082 20.142h-5.114l-2.185-15.019h-.406l-2.239 15.018h-5.056l3.965-20.141h6.956zm21.151 0v20.142h-5.114v-9.247l-4.713 9.246h-5.056V6.02h5.056v9.715l5.056-9.719h4.772zm8.737 0v7.656h3.853V6.015h5.056v20.147h-5.056v-7.417h-3.853v7.421h-5.056V6.025h5.056zm20.173 0a4.132 4.132 0 0 1 3.276 1.469 5.973 5.973 0 0 1 1.208 3.83 6.576 6.576 0 0 1-.518 2.884 2.466 2.466 0 0 1-1.379 1.3 3.871 3.871 0 0 1 2.185 1.532 5.565 5.565 0 0 1 .915 3.3 6.485 6.485 0 0 1-1.262 4.3 4.6 4.6 0 0 1-3.735 1.532H178.1V6.011h7.759zm-2.645 4.353v2.888h.865c.743 0 1.149-.469 1.149-1.41 0-1-.406-1.478-1.149-1.478zm0 7.66v2.947h1.32c.811 0 1.266-.473 1.266-1.473a1.461 1.461 0 0 0-.342-1.059 1.338 1.338 0 0 0-.924-.415h-1.32zm21.151-12.018v5.069h-5.114v2.6h5.056v5.065h-5.051v2.411h5.114v5.006h-10.175V6.025h10.175zm11.612 6.485a2.568 2.568 0 0 0-2.127 1 4.41 4.41 0 0 0-.689 2.6 4.286 4.286 0 0 0 .743 2.591 2.388 2.388 0 0 0 2.073 1 3.663 3.663 0 0 0 1.262-.117 3.148 3.148 0 0 0 .861-.293v6.894a3.77 3.77 0 0 1-.689.176 9.139 9.139 0 0 1-1.433.059 7.465 7.465 0 0 1-6.38-3.181 11.611 11.611 0 0 1-2.127-7.128 11.558 11.558 0 0 1 2.13-7.085 8.389 8.389 0 0 1 7.58-3.116 6.416 6.416 0 0 0 .919.234v6.836a6.625 6.625 0 0 0-.689-.3 5.619 5.619 0 0 0-1.433-.171zm4.824-6.485h11.206v5.479h-3.046v14.668h-5.114V11.495H220.8v-5.48zm19.425 7.48h3.1a4.5 4.5 0 0 1 3.56 1.6 6.318 6.318 0 0 1 1.5 4.533 7.465 7.465 0 0 1-1.442 4.776 4.528 4.528 0 0 1-3.618 1.762h-8.219V6.02H246.9v4.236h-6.669V13.5zm0 4.894v2.884h1.266c.861 0 1.262-.469 1.262-1.469a1.465 1.465 0 0 0-.342-1.063 1.194 1.194 0 0 0-.919-.351h-1.266zM250 26.162l5-20.142h5.858l5 20.142h-5l-.743-2.884h-4.371L255 26.162h-5zm9.138-7.007l-1.208-4.889-1.325 4.889zm14.425-13.14v7.66h3.794v-7.66h5.06v20.147h-5.06v-7.417h-3.794v7.421h-5.114V6.025h5.114zm17.528 0v7.3l3.51-7.3h5.227l-4.483 9.363L300 26.162h-5.227L291.1 17.5v8.661h-5.06V6.02h5.06zM16.839 0a16.1 16.1 0 1 1-1.473 0l.018 4.583A11.569 11.569 0 0 0 8.9 25.179l4.38-11.535-3.042.023a1.3 1.3 0 0 0-.942.162l-.721.694a17.625 17.625 0 0 1 .027-2.1A7.871 7.871 0 0 1 9.778 9.3 3.84 3.84 0 0 1 12 8.232l9.733-.068-1.407 1.465 3.38 15.271a11.566 11.566 0 0 0-6.912-20.317zm-3.718 9.512a.506.506 0 1 1 .009 1.009.517.517 0 0 1-.541-.5.523.523 0 0 1 .532-.514z" data-name="Path 7" style="fill:#004785;fill-rule:evenodd"/>
    </g>
</svg>
