<svg xmlns="http://www.w3.org/2000/svg" width="104.8" height="32" viewBox="0 0 104.8 32">
    <defs>
        <style>
            .prefix__cls-2{fill:#2c2d84}
        </style>
    </defs>
    <g id="prefix__Group_2" data-name="Group 2" transform="translate(-144.043 -482.991)">
        <path id="prefix__Path_1" d="M266.966 482.992L256.3 493.658h10.667v21.333l10.667-10.641v-21.358z" data-name="Path 1" transform="translate(-101.59)" style="fill:#ea5616"/>
        <path id="prefix__Path_2" d="M154.71 514.991l10.667-10.667H154.71v-21.333l-10.667 10.641v21.359z" class="prefix__cls-2" data-name="Path 2"/>
        <path id="prefix__Path_3" d="M593.071 555.3h5.6v-16.529h8.529V555.3h5.6v-21.329h-19.729zm54.4-13.34h-4.784v-3.193h10.654v-4.8h-16.258V555.3h10.651c4.27 0 7.47-2.141 7.47-6.67s-3.2-6.67-7.736-6.67m-.534 8.807h-4.251v-4.262h4.251c1.321 0 2.659.521 2.659 2.125s-1.338 2.137-2.659 2.137m-20.424-.013c-3.737 0-5.839-2.74-5.839-6.128 0-2.72 1.53-6.133 5.733-6.133a6.44 6.44 0 0 1 4.916 2.351l3.4-3.405a11.175 11.175 0 0 0-8.588-4.013 10.823 10.823 0 0 0-11.067 11.2 11.111 11.111 0 0 0 20.091 6.632l-3.427-3.427a6.05 6.05 0 0 1-5.225 2.923" class="prefix__cls-2" data-name="Path 3" transform="translate(-406.362 -45.646)"/>
    </g>
</svg>
